<mxfile host="app.diagrams.net" modified="2021-08-09T14:33:55.362Z" agent="5.0 (Windows NT 10.0; Win64; x64) AppleWebKit/537.36 (KHTML, like Gecko) Chrome/92.0.4515.131 Safari/537.36" etag="P5Av2JnLkw6GFvrBc57x" version="14.9.4" type="github">
  <diagram id="H014H28AUWgZZtACRXV2" name="Page-1">
    <mxGraphModel dx="1221" dy="654" grid="1" gridSize="10" guides="1" tooltips="1" connect="1" arrows="1" fold="1" page="1" pageScale="1" pageWidth="850" pageHeight="1100" math="0" shadow="0">
      <root>
        <mxCell id="0" />
        <mxCell id="1" parent="0" />
        <mxCell id="vuKJpCo0QZ91pxLe1-X3-2" value="User" style="rounded=0;whiteSpace=wrap;html=1;fontSize=21;" parent="1" vertex="1">
          <mxGeometry x="1130" y="420" width="120" height="50" as="geometry" />
        </mxCell>
        <mxCell id="vuKJpCo0QZ91pxLe1-X3-3" value="Id" style="ellipse;whiteSpace=wrap;html=1;fontSize=21;fontStyle=4" parent="1" vertex="1">
          <mxGeometry x="930" y="300" width="140" height="50" as="geometry" />
        </mxCell>
        <mxCell id="vuKJpCo0QZ91pxLe1-X3-4" value="Name" style="ellipse;whiteSpace=wrap;html=1;fontSize=21;" parent="1" vertex="1">
          <mxGeometry x="1110" y="280" width="120" height="40" as="geometry" />
        </mxCell>
        <mxCell id="vuKJpCo0QZ91pxLe1-X3-5" value="Contact" style="ellipse;whiteSpace=wrap;html=1;fontSize=21;" parent="1" vertex="1">
          <mxGeometry x="1270" y="310" width="120" height="40" as="geometry" />
        </mxCell>
        <mxCell id="vuKJpCo0QZ91pxLe1-X3-6" value="" style="endArrow=none;html=1;fontSize=21;entryX=0.5;entryY=1;entryDx=0;entryDy=0;endFill=0;" parent="1" source="vuKJpCo0QZ91pxLe1-X3-2" target="vuKJpCo0QZ91pxLe1-X3-3" edge="1">
          <mxGeometry width="50" height="50" relative="1" as="geometry">
            <mxPoint x="960" y="670" as="sourcePoint" />
            <mxPoint x="1010" y="620" as="targetPoint" />
          </mxGeometry>
        </mxCell>
        <mxCell id="vuKJpCo0QZ91pxLe1-X3-7" value="" style="endArrow=none;html=1;fontSize=21;entryX=0.5;entryY=1;entryDx=0;entryDy=0;endFill=0;" parent="1" source="vuKJpCo0QZ91pxLe1-X3-2" target="vuKJpCo0QZ91pxLe1-X3-4" edge="1">
          <mxGeometry width="50" height="50" relative="1" as="geometry">
            <mxPoint x="960" y="670" as="sourcePoint" />
            <mxPoint x="1010" y="620" as="targetPoint" />
          </mxGeometry>
        </mxCell>
        <mxCell id="vuKJpCo0QZ91pxLe1-X3-8" value="" style="endArrow=none;html=1;fontSize=21;entryX=0.5;entryY=1;entryDx=0;entryDy=0;exitX=0.75;exitY=0;exitDx=0;exitDy=0;endFill=0;" parent="1" source="vuKJpCo0QZ91pxLe1-X3-2" target="vuKJpCo0QZ91pxLe1-X3-5" edge="1">
          <mxGeometry width="50" height="50" relative="1" as="geometry">
            <mxPoint x="1240" y="420" as="sourcePoint" />
            <mxPoint x="1010" y="620" as="targetPoint" />
          </mxGeometry>
        </mxCell>
        <mxCell id="vuKJpCo0QZ91pxLe1-X3-9" style="edgeStyle=orthogonalEdgeStyle;rounded=0;orthogonalLoop=1;jettySize=auto;html=1;exitX=0.5;exitY=1;exitDx=0;exitDy=0;fontSize=21;endArrow=none;endFill=0;" parent="1" source="vuKJpCo0QZ91pxLe1-X3-10" target="vuKJpCo0QZ91pxLe1-X3-11" edge="1">
          <mxGeometry relative="1" as="geometry" />
        </mxCell>
        <mxCell id="vuKJpCo0QZ91pxLe1-X3-10" value="Has" style="rhombus;whiteSpace=wrap;html=1;fontSize=21;rotation=0;direction=north;" parent="1" vertex="1">
          <mxGeometry x="1450" y="405" width="120" height="80" as="geometry" />
        </mxCell>
        <mxCell id="vuKJpCo0QZ91pxLe1-X3-11" value="Address" style="rounded=0;whiteSpace=wrap;html=1;fontSize=21;" parent="1" vertex="1">
          <mxGeometry x="1690" y="415" width="120" height="60" as="geometry" />
        </mxCell>
        <mxCell id="vuKJpCo0QZ91pxLe1-X3-20" style="edgeStyle=elbowEdgeStyle;rounded=0;orthogonalLoop=1;jettySize=auto;html=1;exitX=0.5;exitY=1;exitDx=0;exitDy=0;fontSize=21;endArrow=none;endFill=0;elbow=vertical;startArrow=none;startFill=0;" parent="1" source="vuKJpCo0QZ91pxLe1-X3-21" target="vuKJpCo0QZ91pxLe1-X3-23" edge="1">
          <mxGeometry relative="1" as="geometry" />
        </mxCell>
        <mxCell id="vuKJpCo0QZ91pxLe1-X3-21" value="Category" style="rounded=0;whiteSpace=wrap;html=1;fontSize=21;" parent="1" vertex="1">
          <mxGeometry x="575" y="375" width="150" height="55" as="geometry" />
        </mxCell>
        <mxCell id="vuKJpCo0QZ91pxLe1-X3-22" style="edgeStyle=orthogonalEdgeStyle;rounded=0;orthogonalLoop=1;jettySize=auto;html=1;exitX=0;exitY=0.5;exitDx=0;exitDy=0;entryX=0.5;entryY=0;entryDx=0;entryDy=0;fontSize=21;endArrow=none;endFill=0;" parent="1" source="vuKJpCo0QZ91pxLe1-X3-23" target="vuKJpCo0QZ91pxLe1-X3-25" edge="1">
          <mxGeometry relative="1" as="geometry" />
        </mxCell>
        <mxCell id="vuKJpCo0QZ91pxLe1-X3-23" value="Has" style="rhombus;whiteSpace=wrap;html=1;fontSize=21;rotation=0;direction=north;" parent="1" vertex="1">
          <mxGeometry x="590" y="550" width="120" height="80" as="geometry" />
        </mxCell>
        <mxCell id="vuKJpCo0QZ91pxLe1-X3-24" style="edgeStyle=orthogonalEdgeStyle;rounded=0;orthogonalLoop=1;jettySize=auto;html=1;exitX=0.5;exitY=1;exitDx=0;exitDy=0;fontSize=21;endArrow=none;endFill=0;" parent="1" source="vuKJpCo0QZ91pxLe1-X3-25" target="vuKJpCo0QZ91pxLe1-X3-38" edge="1">
          <mxGeometry relative="1" as="geometry" />
        </mxCell>
        <mxCell id="vuKJpCo0QZ91pxLe1-X3-25" value="Product" style="rounded=0;whiteSpace=wrap;html=1;fontSize=21;" parent="1" vertex="1">
          <mxGeometry x="575" y="760" width="150" height="50" as="geometry" />
        </mxCell>
        <mxCell id="vuKJpCo0QZ91pxLe1-X3-26" value="Searches" style="rhombus;whiteSpace=wrap;html=1;fontSize=21;" parent="1" vertex="1">
          <mxGeometry x="890" y="577.5" width="120" height="85" as="geometry" />
        </mxCell>
        <mxCell id="vuKJpCo0QZ91pxLe1-X3-27" value="" style="endArrow=none;html=1;fontSize=21;entryX=0;entryY=1;entryDx=0;entryDy=0;exitX=0.5;exitY=0;exitDx=0;exitDy=0;entryPerimeter=0;" parent="1" source="vuKJpCo0QZ91pxLe1-X3-26" target="vuKJpCo0QZ91pxLe1-X3-2" edge="1">
          <mxGeometry width="50" height="50" relative="1" as="geometry">
            <mxPoint x="1010" y="670" as="sourcePoint" />
            <mxPoint x="1060" y="620" as="targetPoint" />
          </mxGeometry>
        </mxCell>
        <mxCell id="vuKJpCo0QZ91pxLe1-X3-28" value="" style="endArrow=none;html=1;fontSize=21;exitX=1;exitY=0;exitDx=0;exitDy=0;entryX=0.5;entryY=1;entryDx=0;entryDy=0;" parent="1" source="vuKJpCo0QZ91pxLe1-X3-25" target="vuKJpCo0QZ91pxLe1-X3-26" edge="1">
          <mxGeometry width="50" height="50" relative="1" as="geometry">
            <mxPoint x="1010" y="670" as="sourcePoint" />
            <mxPoint x="940" y="700" as="targetPoint" />
          </mxGeometry>
        </mxCell>
        <mxCell id="vuKJpCo0QZ91pxLe1-X3-29" value="Id" style="ellipse;whiteSpace=wrap;html=1;fontSize=21;fontStyle=4" parent="1" vertex="1">
          <mxGeometry x="440" y="280" width="110" height="40" as="geometry" />
        </mxCell>
        <mxCell id="vuKJpCo0QZ91pxLe1-X3-30" value="Name" style="ellipse;whiteSpace=wrap;html=1;fontSize=21;" parent="1" vertex="1">
          <mxGeometry x="300" y="330" width="120" height="40" as="geometry" />
        </mxCell>
        <mxCell id="vuKJpCo0QZ91pxLe1-X3-31" value="Description" style="ellipse;whiteSpace=wrap;html=1;fontSize=21;" parent="1" vertex="1">
          <mxGeometry x="320" y="415" width="130" height="50" as="geometry" />
        </mxCell>
        <mxCell id="vuKJpCo0QZ91pxLe1-X3-32" value="Parent_Id" style="ellipse;whiteSpace=wrap;html=1;fontSize=21;" parent="1" vertex="1">
          <mxGeometry x="440" y="490" width="110" height="50" as="geometry" />
        </mxCell>
        <mxCell id="vuKJpCo0QZ91pxLe1-X3-33" value="" style="endArrow=none;html=1;fontSize=21;entryX=0.5;entryY=1;entryDx=0;entryDy=0;exitX=0;exitY=0;exitDx=0;exitDy=0;" parent="1" source="vuKJpCo0QZ91pxLe1-X3-21" target="vuKJpCo0QZ91pxLe1-X3-29" edge="1">
          <mxGeometry width="50" height="50" relative="1" as="geometry">
            <mxPoint x="1010" y="670" as="sourcePoint" />
            <mxPoint x="1060" y="620" as="targetPoint" />
          </mxGeometry>
        </mxCell>
        <mxCell id="vuKJpCo0QZ91pxLe1-X3-34" value="" style="endArrow=none;html=1;fontSize=21;entryX=1;entryY=0.5;entryDx=0;entryDy=0;exitX=0;exitY=0.5;exitDx=0;exitDy=0;" parent="1" source="vuKJpCo0QZ91pxLe1-X3-21" target="vuKJpCo0QZ91pxLe1-X3-30" edge="1">
          <mxGeometry width="50" height="50" relative="1" as="geometry">
            <mxPoint x="585" y="385" as="sourcePoint" />
            <mxPoint x="535" y="320" as="targetPoint" />
          </mxGeometry>
        </mxCell>
        <mxCell id="vuKJpCo0QZ91pxLe1-X3-35" value="" style="endArrow=none;html=1;fontSize=21;entryX=1;entryY=0.5;entryDx=0;entryDy=0;" parent="1" target="vuKJpCo0QZ91pxLe1-X3-31" edge="1">
          <mxGeometry width="50" height="50" relative="1" as="geometry">
            <mxPoint x="575" y="410" as="sourcePoint" />
            <mxPoint x="455" y="350" as="targetPoint" />
          </mxGeometry>
        </mxCell>
        <mxCell id="vuKJpCo0QZ91pxLe1-X3-36" value="" style="endArrow=none;html=1;fontSize=21;exitX=0.25;exitY=1;exitDx=0;exitDy=0;entryX=1;entryY=0;entryDx=0;entryDy=0;" parent="1" source="vuKJpCo0QZ91pxLe1-X3-21" target="vuKJpCo0QZ91pxLe1-X3-32" edge="1">
          <mxGeometry width="50" height="50" relative="1" as="geometry">
            <mxPoint x="585" y="440" as="sourcePoint" />
            <mxPoint x="520" y="490" as="targetPoint" />
          </mxGeometry>
        </mxCell>
        <mxCell id="vuKJpCo0QZ91pxLe1-X3-37" style="edgeStyle=orthogonalEdgeStyle;rounded=0;orthogonalLoop=1;jettySize=auto;html=1;exitX=0;exitY=0.5;exitDx=0;exitDy=0;fontSize=21;endArrow=none;endFill=0;" parent="1" source="vuKJpCo0QZ91pxLe1-X3-38" target="vuKJpCo0QZ91pxLe1-X3-39" edge="1">
          <mxGeometry relative="1" as="geometry" />
        </mxCell>
        <mxCell id="vuKJpCo0QZ91pxLe1-X3-38" value="Has" style="rhombus;whiteSpace=wrap;html=1;fontSize=21;rotation=0;direction=north;" parent="1" vertex="1">
          <mxGeometry x="590" y="1020" width="120" height="80" as="geometry" />
        </mxCell>
        <mxCell id="vuKJpCo0QZ91pxLe1-X3-39" value="Image" style="rounded=0;whiteSpace=wrap;html=1;fontSize=21;" parent="1" vertex="1">
          <mxGeometry x="590" y="1170" width="120" height="60" as="geometry" />
        </mxCell>
        <mxCell id="vuKJpCo0QZ91pxLe1-X3-48" value="" style="endArrow=none;html=1;fontSize=21;entryX=1;entryY=0.5;entryDx=0;entryDy=0;exitX=0;exitY=0.75;exitDx=0;exitDy=0;" parent="1" source="vuKJpCo0QZ91pxLe1-X3-2" target="vuKJpCo0QZ91pxLe1-X3-73" edge="1">
          <mxGeometry width="50" height="50" relative="1" as="geometry">
            <mxPoint x="1010" y="920" as="sourcePoint" />
            <mxPoint x="1450" y="665" as="targetPoint" />
          </mxGeometry>
        </mxCell>
        <mxCell id="vuKJpCo0QZ91pxLe1-X3-49" value="Order" style="rounded=0;whiteSpace=wrap;html=1;fontSize=21;" parent="1" vertex="1">
          <mxGeometry x="1650" y="830" width="130" height="50" as="geometry" />
        </mxCell>
        <mxCell id="vuKJpCo0QZ91pxLe1-X3-50" value="Items" style="rounded=0;whiteSpace=wrap;html=1;fontSize=21;" parent="1" vertex="1">
          <mxGeometry x="1620" y="1320" width="160" height="50" as="geometry" />
        </mxCell>
        <mxCell id="vuKJpCo0QZ91pxLe1-X3-54" value="Has" style="rhombus;whiteSpace=wrap;html=1;fontSize=21;rotation=0;direction=north;" parent="1" vertex="1">
          <mxGeometry x="1460" y="1050" width="120" height="80" as="geometry" />
        </mxCell>
        <mxCell id="vuKJpCo0QZ91pxLe1-X3-55" value="" style="endArrow=none;html=1;fontSize=21;entryX=0;entryY=1;entryDx=0;entryDy=0;exitX=1;exitY=0.5;exitDx=0;exitDy=0;" parent="1" source="vuKJpCo0QZ91pxLe1-X3-54" target="vuKJpCo0QZ91pxLe1-X3-49" edge="1">
          <mxGeometry width="50" height="50" relative="1" as="geometry">
            <mxPoint x="1010" y="940" as="sourcePoint" />
            <mxPoint x="1060" y="890" as="targetPoint" />
          </mxGeometry>
        </mxCell>
        <mxCell id="vuKJpCo0QZ91pxLe1-X3-56" value="" style="endArrow=none;html=1;fontSize=21;entryX=0;entryY=0.5;entryDx=0;entryDy=0;exitX=0;exitY=0;exitDx=0;exitDy=0;" parent="1" source="vuKJpCo0QZ91pxLe1-X3-50" target="vuKJpCo0QZ91pxLe1-X3-54" edge="1">
          <mxGeometry width="50" height="50" relative="1" as="geometry">
            <mxPoint x="1010" y="1000" as="sourcePoint" />
            <mxPoint x="1060" y="950" as="targetPoint" />
          </mxGeometry>
        </mxCell>
        <mxCell id="vuKJpCo0QZ91pxLe1-X3-57" value="&lt;u&gt;Id&lt;/u&gt;" style="ellipse;whiteSpace=wrap;html=1;fontSize=21;" parent="1" vertex="1">
          <mxGeometry x="1860" y="810" width="120" height="45" as="geometry" />
        </mxCell>
        <mxCell id="vuKJpCo0QZ91pxLe1-X3-58" value="" style="endArrow=none;html=1;fontSize=21;entryX=0;entryY=0.5;entryDx=0;entryDy=0;" parent="1" target="vuKJpCo0QZ91pxLe1-X3-57" edge="1">
          <mxGeometry width="50" height="50" relative="1" as="geometry">
            <mxPoint x="1780" y="850" as="sourcePoint" />
            <mxPoint x="1370" y="870" as="targetPoint" />
          </mxGeometry>
        </mxCell>
        <mxCell id="vuKJpCo0QZ91pxLe1-X3-60" value="&lt;font style=&quot;font-size: 21px&quot;&gt;Includes&lt;/font&gt;" style="rhombus;whiteSpace=wrap;html=1;" parent="1" vertex="1">
          <mxGeometry x="1110" y="860" width="100" height="100" as="geometry" />
        </mxCell>
        <mxCell id="vuKJpCo0QZ91pxLe1-X3-61" value="" style="endArrow=none;html=1;exitX=1;exitY=0.5;exitDx=0;exitDy=0;entryX=0;entryY=0.5;entryDx=0;entryDy=0;" parent="1" source="vuKJpCo0QZ91pxLe1-X3-60" target="vuKJpCo0QZ91pxLe1-X3-49" edge="1">
          <mxGeometry width="50" height="50" relative="1" as="geometry">
            <mxPoint x="1230" y="780" as="sourcePoint" />
            <mxPoint x="1280" y="730" as="targetPoint" />
          </mxGeometry>
        </mxCell>
        <mxCell id="vuKJpCo0QZ91pxLe1-X3-62" value="" style="endArrow=none;html=1;exitX=1;exitY=0.5;exitDx=0;exitDy=0;entryX=0;entryY=0.5;entryDx=0;entryDy=0;" parent="1" source="vuKJpCo0QZ91pxLe1-X3-25" target="vuKJpCo0QZ91pxLe1-X3-60" edge="1">
          <mxGeometry width="50" height="50" relative="1" as="geometry">
            <mxPoint x="1230" y="780" as="sourcePoint" />
            <mxPoint x="1280" y="730" as="targetPoint" />
          </mxGeometry>
        </mxCell>
        <mxCell id="vuKJpCo0QZ91pxLe1-X3-66" value="PIN" style="ellipse;whiteSpace=wrap;html=1;fontSize=21;" parent="1" vertex="1">
          <mxGeometry x="1655" y="260" width="120" height="40" as="geometry" />
        </mxCell>
        <mxCell id="vuKJpCo0QZ91pxLe1-X3-67" value="State" style="ellipse;whiteSpace=wrap;html=1;fontSize=21;" parent="1" vertex="1">
          <mxGeometry x="1960" y="370" width="120" height="40" as="geometry" />
        </mxCell>
        <mxCell id="vuKJpCo0QZ91pxLe1-X3-68" value="City" style="ellipse;whiteSpace=wrap;html=1;fontSize=21;" parent="1" vertex="1">
          <mxGeometry x="1830" y="290" width="120" height="40" as="geometry" />
        </mxCell>
        <mxCell id="vuKJpCo0QZ91pxLe1-X3-70" value="" style="endArrow=none;html=1;entryX=0;entryY=0.5;entryDx=0;entryDy=0;exitX=0.75;exitY=0;exitDx=0;exitDy=0;" parent="1" source="vuKJpCo0QZ91pxLe1-X3-11" target="vuKJpCo0QZ91pxLe1-X3-67" edge="1">
          <mxGeometry width="50" height="50" relative="1" as="geometry">
            <mxPoint x="1520" y="510" as="sourcePoint" />
            <mxPoint x="1570" y="460" as="targetPoint" />
          </mxGeometry>
        </mxCell>
        <mxCell id="vuKJpCo0QZ91pxLe1-X3-71" value="" style="endArrow=none;html=1;entryX=0.5;entryY=1;entryDx=0;entryDy=0;exitX=0.5;exitY=0;exitDx=0;exitDy=0;" parent="1" source="vuKJpCo0QZ91pxLe1-X3-11" target="vuKJpCo0QZ91pxLe1-X3-68" edge="1">
          <mxGeometry width="50" height="50" relative="1" as="geometry">
            <mxPoint x="1880" y="420" as="sourcePoint" />
            <mxPoint x="1570" y="460" as="targetPoint" />
          </mxGeometry>
        </mxCell>
        <mxCell id="vuKJpCo0QZ91pxLe1-X3-72" value="" style="endArrow=none;html=1;entryX=0.5;entryY=1;entryDx=0;entryDy=0;exitX=0.25;exitY=0;exitDx=0;exitDy=0;" parent="1" source="vuKJpCo0QZ91pxLe1-X3-11" target="vuKJpCo0QZ91pxLe1-X3-66" edge="1">
          <mxGeometry width="50" height="50" relative="1" as="geometry">
            <mxPoint x="1520" y="510" as="sourcePoint" />
            <mxPoint x="1570" y="460" as="targetPoint" />
          </mxGeometry>
        </mxCell>
        <mxCell id="vuKJpCo0QZ91pxLe1-X3-73" value="Role" style="ellipse;whiteSpace=wrap;html=1;fontSize=21;" parent="1" vertex="1">
          <mxGeometry x="850" y="410" width="120" height="40" as="geometry" />
        </mxCell>
        <mxCell id="vuKJpCo0QZ91pxLe1-X3-74" value="&lt;font style=&quot;font-size: 20px&quot;&gt;Administrator&lt;/font&gt;" style="rounded=0;whiteSpace=wrap;html=1;" parent="1" vertex="1">
          <mxGeometry x="1050" y="650" width="130" height="40" as="geometry" />
        </mxCell>
        <mxCell id="vuKJpCo0QZ91pxLe1-X3-75" value="&lt;font style=&quot;font-size: 20px&quot;&gt;Shopper&lt;/font&gt;" style="rounded=0;whiteSpace=wrap;html=1;" parent="1" vertex="1">
          <mxGeometry x="1220" y="650" width="130" height="40" as="geometry" />
        </mxCell>
        <mxCell id="vuKJpCo0QZ91pxLe1-X3-76" value="" style="endArrow=none;html=1;entryX=0.5;entryY=1;entryDx=0;entryDy=0;exitX=0;exitY=0.5;exitDx=0;exitDy=0;" parent="1" source="vuKJpCo0QZ91pxLe1-X3-77" target="vuKJpCo0QZ91pxLe1-X3-2" edge="1">
          <mxGeometry width="50" height="50" relative="1" as="geometry">
            <mxPoint x="1490" y="680" as="sourcePoint" />
            <mxPoint x="1540" y="630" as="targetPoint" />
          </mxGeometry>
        </mxCell>
        <mxCell id="vuKJpCo0QZ91pxLe1-X3-77" value="&lt;font style=&quot;font-size: 19px&quot;&gt;IS&lt;br&gt;A&lt;/font&gt;" style="triangle;whiteSpace=wrap;html=1;direction=south;" parent="1" vertex="1">
          <mxGeometry x="1150" y="520" width="80" height="60" as="geometry" />
        </mxCell>
        <mxCell id="vuKJpCo0QZ91pxLe1-X3-78" value="" style="endArrow=none;html=1;entryX=1;entryY=0.5;entryDx=0;entryDy=0;exitX=0.5;exitY=0;exitDx=0;exitDy=0;" parent="1" source="vuKJpCo0QZ91pxLe1-X3-74" target="vuKJpCo0QZ91pxLe1-X3-77" edge="1">
          <mxGeometry width="50" height="50" relative="1" as="geometry">
            <mxPoint x="1490" y="680" as="sourcePoint" />
            <mxPoint x="1540" y="630" as="targetPoint" />
          </mxGeometry>
        </mxCell>
        <mxCell id="vuKJpCo0QZ91pxLe1-X3-79" value="" style="endArrow=none;html=1;entryX=1;entryY=0.5;entryDx=0;entryDy=0;exitX=0.5;exitY=0;exitDx=0;exitDy=0;" parent="1" source="vuKJpCo0QZ91pxLe1-X3-75" target="vuKJpCo0QZ91pxLe1-X3-77" edge="1">
          <mxGeometry width="50" height="50" relative="1" as="geometry">
            <mxPoint x="1490" y="680" as="sourcePoint" />
            <mxPoint x="1540" y="630" as="targetPoint" />
          </mxGeometry>
        </mxCell>
        <mxCell id="vuKJpCo0QZ91pxLe1-X3-80" value="Places" style="rhombus;whiteSpace=wrap;html=1;fontSize=21;rotation=0;direction=north;" parent="1" vertex="1">
          <mxGeometry x="1450" y="630" width="120" height="80" as="geometry" />
        </mxCell>
        <mxCell id="vuKJpCo0QZ91pxLe1-X3-81" value="" style="endArrow=none;html=1;exitX=0.75;exitY=0;exitDx=0;exitDy=0;entryX=0.5;entryY=0;entryDx=0;entryDy=0;" parent="1" source="vuKJpCo0QZ91pxLe1-X3-75" target="vuKJpCo0QZ91pxLe1-X3-10" edge="1">
          <mxGeometry width="50" height="50" relative="1" as="geometry">
            <mxPoint x="1490" y="530" as="sourcePoint" />
            <mxPoint x="1540" y="480" as="targetPoint" />
          </mxGeometry>
        </mxCell>
        <mxCell id="vuKJpCo0QZ91pxLe1-X3-82" value="" style="endArrow=none;html=1;exitX=1;exitY=0.5;exitDx=0;exitDy=0;entryX=0.5;entryY=0;entryDx=0;entryDy=0;" parent="1" source="vuKJpCo0QZ91pxLe1-X3-75" target="vuKJpCo0QZ91pxLe1-X3-80" edge="1">
          <mxGeometry width="50" height="50" relative="1" as="geometry">
            <mxPoint x="1490" y="670" as="sourcePoint" />
            <mxPoint x="1540" y="620" as="targetPoint" />
          </mxGeometry>
        </mxCell>
        <mxCell id="vuKJpCo0QZ91pxLe1-X3-83" value="" style="endArrow=none;html=1;entryX=0.25;entryY=0;entryDx=0;entryDy=0;exitX=0.5;exitY=1;exitDx=0;exitDy=0;" parent="1" source="vuKJpCo0QZ91pxLe1-X3-80" target="vuKJpCo0QZ91pxLe1-X3-49" edge="1">
          <mxGeometry width="50" height="50" relative="1" as="geometry">
            <mxPoint x="1490" y="670" as="sourcePoint" />
            <mxPoint x="1540" y="620" as="targetPoint" />
          </mxGeometry>
        </mxCell>
        <mxCell id="vuKJpCo0QZ91pxLe1-X3-84" value="Amount" style="ellipse;whiteSpace=wrap;html=1;fontSize=21;" parent="1" vertex="1">
          <mxGeometry x="1730" y="930" width="120" height="40" as="geometry" />
        </mxCell>
        <mxCell id="vuKJpCo0QZ91pxLe1-X3-85" value="User_Id" style="ellipse;whiteSpace=wrap;html=1;fontSize=21;" parent="1" vertex="1">
          <mxGeometry x="1790" y="750" width="120" height="40" as="geometry" />
        </mxCell>
        <mxCell id="vuKJpCo0QZ91pxLe1-X3-86" value="Status" style="ellipse;whiteSpace=wrap;html=1;fontSize=21;" parent="1" vertex="1">
          <mxGeometry x="1850" y="880" width="120" height="40" as="geometry" />
        </mxCell>
        <mxCell id="vuKJpCo0QZ91pxLe1-X3-87" value="Date" style="ellipse;whiteSpace=wrap;html=1;fontSize=21;" parent="1" vertex="1">
          <mxGeometry x="1700" y="700" width="120" height="40" as="geometry" />
        </mxCell>
        <mxCell id="vuKJpCo0QZ91pxLe1-X3-88" value="" style="endArrow=none;html=1;entryX=0.5;entryY=1;entryDx=0;entryDy=0;exitX=0.5;exitY=0;exitDx=0;exitDy=0;" parent="1" source="vuKJpCo0QZ91pxLe1-X3-49" target="vuKJpCo0QZ91pxLe1-X3-87" edge="1">
          <mxGeometry width="50" height="50" relative="1" as="geometry">
            <mxPoint x="1490" y="810" as="sourcePoint" />
            <mxPoint x="1540" y="760" as="targetPoint" />
          </mxGeometry>
        </mxCell>
        <mxCell id="vuKJpCo0QZ91pxLe1-X3-89" value="" style="endArrow=none;html=1;entryX=0.335;entryY=1.071;entryDx=0;entryDy=0;entryPerimeter=0;exitX=0.75;exitY=0;exitDx=0;exitDy=0;" parent="1" source="vuKJpCo0QZ91pxLe1-X3-49" target="vuKJpCo0QZ91pxLe1-X3-85" edge="1">
          <mxGeometry width="50" height="50" relative="1" as="geometry">
            <mxPoint x="1490" y="810" as="sourcePoint" />
            <mxPoint x="1540" y="760" as="targetPoint" />
          </mxGeometry>
        </mxCell>
        <mxCell id="vuKJpCo0QZ91pxLe1-X3-90" value="" style="endArrow=none;html=1;exitX=1;exitY=1;exitDx=0;exitDy=0;entryX=0;entryY=0.5;entryDx=0;entryDy=0;" parent="1" source="vuKJpCo0QZ91pxLe1-X3-49" target="vuKJpCo0QZ91pxLe1-X3-86" edge="1">
          <mxGeometry width="50" height="50" relative="1" as="geometry">
            <mxPoint x="1490" y="810" as="sourcePoint" />
            <mxPoint x="1540" y="760" as="targetPoint" />
          </mxGeometry>
        </mxCell>
        <mxCell id="vuKJpCo0QZ91pxLe1-X3-91" value="" style="endArrow=none;html=1;exitX=0.75;exitY=1;exitDx=0;exitDy=0;entryX=0.5;entryY=0;entryDx=0;entryDy=0;" parent="1" source="vuKJpCo0QZ91pxLe1-X3-49" target="vuKJpCo0QZ91pxLe1-X3-84" edge="1">
          <mxGeometry width="50" height="50" relative="1" as="geometry">
            <mxPoint x="1490" y="810" as="sourcePoint" />
            <mxPoint x="1540" y="760" as="targetPoint" />
          </mxGeometry>
        </mxCell>
        <mxCell id="vuKJpCo0QZ91pxLe1-X3-93" value="Product_Id" style="ellipse;whiteSpace=wrap;html=1;fontSize=21;" parent="1" vertex="1">
          <mxGeometry x="1840" y="1325" width="120" height="40" as="geometry" />
        </mxCell>
        <mxCell id="vuKJpCo0QZ91pxLe1-X3-94" value="Order_Id" style="ellipse;whiteSpace=wrap;html=1;fontSize=21;" parent="1" vertex="1">
          <mxGeometry x="1790" y="1240" width="120" height="40" as="geometry" />
        </mxCell>
        <mxCell id="vuKJpCo0QZ91pxLe1-X3-95" value="&lt;u&gt;Id&lt;/u&gt;" style="ellipse;whiteSpace=wrap;html=1;fontSize=21;" parent="1" vertex="1">
          <mxGeometry x="1660" y="1190" width="120" height="40" as="geometry" />
        </mxCell>
        <mxCell id="vuKJpCo0QZ91pxLe1-X3-96" style="edgeStyle=orthogonalEdgeStyle;rounded=0;orthogonalLoop=1;jettySize=auto;html=1;exitX=0.5;exitY=1;exitDx=0;exitDy=0;" parent="1" source="vuKJpCo0QZ91pxLe1-X3-95" target="vuKJpCo0QZ91pxLe1-X3-95" edge="1">
          <mxGeometry relative="1" as="geometry" />
        </mxCell>
        <mxCell id="vuKJpCo0QZ91pxLe1-X3-97" value="Quantity" style="ellipse;whiteSpace=wrap;html=1;fontSize=21;" parent="1" vertex="1">
          <mxGeometry x="1720" y="1450" width="120" height="40" as="geometry" />
        </mxCell>
        <mxCell id="vuKJpCo0QZ91pxLe1-X3-101" value="" style="endArrow=none;html=1;entryX=0;entryY=0.5;entryDx=0;entryDy=0;exitX=1;exitY=0.5;exitDx=0;exitDy=0;" parent="1" source="vuKJpCo0QZ91pxLe1-X3-50" target="vuKJpCo0QZ91pxLe1-X3-93" edge="1">
          <mxGeometry width="50" height="50" relative="1" as="geometry">
            <mxPoint x="1490" y="1240" as="sourcePoint" />
            <mxPoint x="1540" y="1190" as="targetPoint" />
          </mxGeometry>
        </mxCell>
        <mxCell id="vuKJpCo0QZ91pxLe1-X3-102" value="" style="endArrow=none;html=1;exitX=0.599;exitY=0.04;exitDx=0;exitDy=0;exitPerimeter=0;" parent="1" source="vuKJpCo0QZ91pxLe1-X3-50" edge="1">
          <mxGeometry width="50" height="50" relative="1" as="geometry">
            <mxPoint x="1490" y="1240" as="sourcePoint" />
            <mxPoint x="1720" y="1230" as="targetPoint" />
          </mxGeometry>
        </mxCell>
        <mxCell id="vuKJpCo0QZ91pxLe1-X3-103" value="" style="endArrow=none;html=1;entryX=0.315;entryY=1.021;entryDx=0;entryDy=0;entryPerimeter=0;exitX=0.878;exitY=-0.006;exitDx=0;exitDy=0;exitPerimeter=0;" parent="1" source="vuKJpCo0QZ91pxLe1-X3-50" target="vuKJpCo0QZ91pxLe1-X3-94" edge="1">
          <mxGeometry width="50" height="50" relative="1" as="geometry">
            <mxPoint x="1530" y="1250" as="sourcePoint" />
            <mxPoint x="1540" y="1190" as="targetPoint" />
          </mxGeometry>
        </mxCell>
        <mxCell id="vuKJpCo0QZ91pxLe1-X3-104" value="" style="endArrow=none;html=1;exitX=0.5;exitY=0;exitDx=0;exitDy=0;" parent="1" source="vuKJpCo0QZ91pxLe1-X3-97" edge="1">
          <mxGeometry width="50" height="50" relative="1" as="geometry">
            <mxPoint x="1490" y="1240" as="sourcePoint" />
            <mxPoint x="1730" y="1370" as="targetPoint" />
          </mxGeometry>
        </mxCell>
        <mxCell id="vuKJpCo0QZ91pxLe1-X3-106" value="&lt;font&gt;&lt;font style=&quot;font-size: 16px&quot;&gt;Shipping_Address&lt;/font&gt;&lt;br&gt;&lt;/font&gt;" style="ellipse;whiteSpace=wrap;html=1;fontSize=21;dashed=1;" parent="1" vertex="1">
          <mxGeometry x="1640" y="990" width="140" height="60" as="geometry" />
        </mxCell>
        <mxCell id="vuKJpCo0QZ91pxLe1-X3-107" value="" style="endArrow=none;html=1;entryX=0.5;entryY=1;entryDx=0;entryDy=0;" parent="1" target="vuKJpCo0QZ91pxLe1-X3-49" edge="1">
          <mxGeometry width="50" height="50" relative="1" as="geometry">
            <mxPoint x="1710" y="986" as="sourcePoint" />
            <mxPoint x="1410" y="910" as="targetPoint" />
          </mxGeometry>
        </mxCell>
        <mxCell id="vuKJpCo0QZ91pxLe1-X3-110" value="&lt;u&gt;Image_Id&lt;/u&gt;" style="ellipse;whiteSpace=wrap;html=1;fontSize=21;" parent="1" vertex="1">
          <mxGeometry x="420" y="1120" width="110" height="50" as="geometry" />
        </mxCell>
        <mxCell id="vuKJpCo0QZ91pxLe1-X3-111" value="Url" style="ellipse;whiteSpace=wrap;html=1;fontSize=21;" parent="1" vertex="1">
          <mxGeometry x="420" y="1240" width="110" height="50" as="geometry" />
        </mxCell>
        <mxCell id="vuKJpCo0QZ91pxLe1-X3-112" value="" style="endArrow=none;html=1;exitX=1;exitY=0.5;exitDx=0;exitDy=0;entryX=0;entryY=0.25;entryDx=0;entryDy=0;" parent="1" source="vuKJpCo0QZ91pxLe1-X3-110" target="vuKJpCo0QZ91pxLe1-X3-39" edge="1">
          <mxGeometry width="50" height="50" relative="1" as="geometry">
            <mxPoint x="710" y="1000" as="sourcePoint" />
            <mxPoint x="760" y="950" as="targetPoint" />
          </mxGeometry>
        </mxCell>
        <mxCell id="vuKJpCo0QZ91pxLe1-X3-113" value="" style="endArrow=none;html=1;exitX=0;exitY=0.75;exitDx=0;exitDy=0;entryX=1;entryY=0.5;entryDx=0;entryDy=0;" parent="1" source="vuKJpCo0QZ91pxLe1-X3-39" target="vuKJpCo0QZ91pxLe1-X3-111" edge="1">
          <mxGeometry width="50" height="50" relative="1" as="geometry">
            <mxPoint x="710" y="1000" as="sourcePoint" />
            <mxPoint x="760" y="950" as="targetPoint" />
          </mxGeometry>
        </mxCell>
        <mxCell id="jiGbf1lOp1Cgb45dciDO-1" value="Description" style="ellipse;whiteSpace=wrap;html=1;fontSize=21;" vertex="1" parent="1">
          <mxGeometry x="330" y="760" width="110" height="50" as="geometry" />
        </mxCell>
        <mxCell id="jiGbf1lOp1Cgb45dciDO-2" value="Name" style="ellipse;whiteSpace=wrap;html=1;fontSize=21;" vertex="1" parent="1">
          <mxGeometry x="360" y="680" width="110" height="50" as="geometry" />
        </mxCell>
        <mxCell id="jiGbf1lOp1Cgb45dciDO-3" value="&lt;u&gt;Id&lt;/u&gt;" style="ellipse;whiteSpace=wrap;html=1;fontSize=21;" vertex="1" parent="1">
          <mxGeometry x="490" y="650" width="110" height="50" as="geometry" />
        </mxCell>
        <mxCell id="jiGbf1lOp1Cgb45dciDO-4" value="Stock" style="ellipse;whiteSpace=wrap;html=1;fontSize=21;" vertex="1" parent="1">
          <mxGeometry x="380" y="850" width="110" height="50" as="geometry" />
        </mxCell>
        <mxCell id="jiGbf1lOp1Cgb45dciDO-5" value="Category_Id" style="ellipse;whiteSpace=wrap;html=1;fontSize=21;" vertex="1" parent="1">
          <mxGeometry x="480" y="910" width="110" height="50" as="geometry" />
        </mxCell>
        <mxCell id="jiGbf1lOp1Cgb45dciDO-6" value="Price" style="ellipse;whiteSpace=wrap;html=1;fontSize=21;" vertex="1" parent="1">
          <mxGeometry x="670" y="910" width="110" height="50" as="geometry" />
        </mxCell>
        <mxCell id="jiGbf1lOp1Cgb45dciDO-7" value="" style="endArrow=none;html=1;entryX=0.75;entryY=1;entryDx=0;entryDy=0;exitX=0.5;exitY=0;exitDx=0;exitDy=0;" edge="1" parent="1" source="jiGbf1lOp1Cgb45dciDO-6" target="vuKJpCo0QZ91pxLe1-X3-25">
          <mxGeometry width="50" height="50" relative="1" as="geometry">
            <mxPoint x="860" y="960" as="sourcePoint" />
            <mxPoint x="910" y="910" as="targetPoint" />
          </mxGeometry>
        </mxCell>
        <mxCell id="jiGbf1lOp1Cgb45dciDO-8" value="" style="endArrow=none;html=1;exitX=0.25;exitY=1;exitDx=0;exitDy=0;entryX=0.648;entryY=-0.011;entryDx=0;entryDy=0;entryPerimeter=0;" edge="1" parent="1" source="vuKJpCo0QZ91pxLe1-X3-25" target="jiGbf1lOp1Cgb45dciDO-5">
          <mxGeometry width="50" height="50" relative="1" as="geometry">
            <mxPoint x="860" y="960" as="sourcePoint" />
            <mxPoint x="910" y="910" as="targetPoint" />
          </mxGeometry>
        </mxCell>
        <mxCell id="jiGbf1lOp1Cgb45dciDO-9" value="" style="endArrow=none;html=1;" edge="1" parent="1" source="jiGbf1lOp1Cgb45dciDO-4">
          <mxGeometry width="50" height="50" relative="1" as="geometry">
            <mxPoint x="860" y="960" as="sourcePoint" />
            <mxPoint x="580" y="810" as="targetPoint" />
          </mxGeometry>
        </mxCell>
        <mxCell id="jiGbf1lOp1Cgb45dciDO-10" value="" style="endArrow=none;html=1;entryX=1;entryY=0.5;entryDx=0;entryDy=0;" edge="1" parent="1" target="jiGbf1lOp1Cgb45dciDO-1">
          <mxGeometry width="50" height="50" relative="1" as="geometry">
            <mxPoint x="575" y="785" as="sourcePoint" />
            <mxPoint x="910" y="920" as="targetPoint" />
          </mxGeometry>
        </mxCell>
        <mxCell id="jiGbf1lOp1Cgb45dciDO-11" value="" style="endArrow=none;html=1;entryX=1;entryY=0.5;entryDx=0;entryDy=0;exitX=0;exitY=0.25;exitDx=0;exitDy=0;" edge="1" parent="1" source="vuKJpCo0QZ91pxLe1-X3-25" target="jiGbf1lOp1Cgb45dciDO-2">
          <mxGeometry width="50" height="50" relative="1" as="geometry">
            <mxPoint x="860" y="960" as="sourcePoint" />
            <mxPoint x="910" y="910" as="targetPoint" />
          </mxGeometry>
        </mxCell>
        <mxCell id="jiGbf1lOp1Cgb45dciDO-12" value="" style="endArrow=none;html=1;entryX=1;entryY=1;entryDx=0;entryDy=0;exitX=0.25;exitY=0;exitDx=0;exitDy=0;" edge="1" parent="1" source="vuKJpCo0QZ91pxLe1-X3-25" target="jiGbf1lOp1Cgb45dciDO-3">
          <mxGeometry width="50" height="50" relative="1" as="geometry">
            <mxPoint x="860" y="960" as="sourcePoint" />
            <mxPoint x="910" y="910" as="targetPoint" />
          </mxGeometry>
        </mxCell>
        <mxCell id="jiGbf1lOp1Cgb45dciDO-13" value="&lt;font size=&quot;1&quot;&gt;&lt;b style=&quot;font-size: 16px&quot;&gt;M&lt;/b&gt;&lt;/font&gt;" style="text;html=1;align=center;verticalAlign=middle;resizable=0;points=[];autosize=1;strokeColor=none;" vertex="1" parent="1">
          <mxGeometry x="650" y="435" width="30" height="20" as="geometry" />
        </mxCell>
        <mxCell id="jiGbf1lOp1Cgb45dciDO-14" value="&lt;b style=&quot;color: rgb(0 , 0 , 0) ; font-family: &amp;#34;helvetica&amp;#34; ; font-style: normal ; letter-spacing: normal ; text-align: center ; text-indent: 0px ; text-transform: none ; word-spacing: 0px ; background-color: rgb(248 , 249 , 250) ; font-size: 16px&quot;&gt;N&lt;/b&gt;" style="text;whiteSpace=wrap;html=1;" vertex="1" parent="1">
          <mxGeometry x="660" y="730" width="40" height="30" as="geometry" />
        </mxCell>
        <mxCell id="jiGbf1lOp1Cgb45dciDO-16" value="&lt;b style=&quot;color: rgb(0 , 0 , 0) ; font-family: &amp;#34;helvetica&amp;#34; ; font-style: normal ; letter-spacing: normal ; text-align: center ; text-indent: 0px ; text-transform: none ; word-spacing: 0px ; background-color: rgb(248 , 249 , 250) ; font-size: 16px&quot;&gt;1&lt;/b&gt;" style="text;whiteSpace=wrap;html=1;" vertex="1" parent="1">
          <mxGeometry x="660" y="810" width="40" height="30" as="geometry" />
        </mxCell>
        <mxCell id="jiGbf1lOp1Cgb45dciDO-18" value="&lt;b style=&quot;color: rgb(0 , 0 , 0) ; font-family: &amp;#34;helvetica&amp;#34; ; font-style: normal ; letter-spacing: normal ; text-align: center ; text-indent: 0px ; text-transform: none ; word-spacing: 0px ; background-color: rgb(248 , 249 , 250) ; font-size: 16px&quot;&gt;(1, M)&lt;/b&gt;" style="text;whiteSpace=wrap;html=1;" vertex="1" parent="1">
          <mxGeometry x="1620" y="1280" width="50" height="30" as="geometry" />
        </mxCell>
        <mxCell id="jiGbf1lOp1Cgb45dciDO-20" value="&lt;b style=&quot;color: rgb(0 , 0 , 0) ; font-family: &amp;#34;helvetica&amp;#34; ; font-style: normal ; letter-spacing: normal ; text-align: center ; text-indent: 0px ; text-transform: none ; word-spacing: 0px ; background-color: rgb(248 , 249 , 250) ; font-size: 16px&quot;&gt;1&lt;/b&gt;" style="text;whiteSpace=wrap;html=1;" vertex="1" parent="1">
          <mxGeometry x="1650" y="885" width="40" height="30" as="geometry" />
        </mxCell>
        <mxCell id="jiGbf1lOp1Cgb45dciDO-22" value="&lt;b style=&quot;color: rgb(0 , 0 , 0) ; font-family: &amp;#34;helvetica&amp;#34; ; font-style: normal ; letter-spacing: normal ; text-align: center ; text-indent: 0px ; text-transform: none ; word-spacing: 0px ; background-color: rgb(248 , 249 , 250) ; font-size: 16px&quot;&gt;(1, M)&lt;/b&gt;" style="text;whiteSpace=wrap;html=1;" vertex="1" parent="1">
          <mxGeometry x="1620" y="800" width="50" height="30" as="geometry" />
        </mxCell>
        <mxCell id="jiGbf1lOp1Cgb45dciDO-25" value="&lt;b style=&quot;color: rgb(0 , 0 , 0) ; font-family: &amp;#34;helvetica&amp;#34; ; font-style: normal ; letter-spacing: normal ; text-align: center ; text-indent: 0px ; text-transform: none ; word-spacing: 0px ; background-color: rgb(248 , 249 , 250) ; font-size: 16px&quot;&gt;1&lt;/b&gt;" style="text;whiteSpace=wrap;html=1;" vertex="1" parent="1">
          <mxGeometry x="1360" y="640" width="40" height="30" as="geometry" />
        </mxCell>
        <mxCell id="jiGbf1lOp1Cgb45dciDO-26" value="&lt;b style=&quot;color: rgb(0 , 0 , 0) ; font-family: &amp;#34;helvetica&amp;#34; ; font-style: normal ; letter-spacing: normal ; text-align: center ; text-indent: 0px ; text-transform: none ; word-spacing: 0px ; background-color: rgb(248 , 249 , 250) ; font-size: 16px&quot;&gt;1&lt;/b&gt;" style="text;whiteSpace=wrap;html=1;" vertex="1" parent="1">
          <mxGeometry x="1310" y="610" width="40" height="30" as="geometry" />
        </mxCell>
        <mxCell id="jiGbf1lOp1Cgb45dciDO-27" value="&lt;b style=&quot;color: rgb(0 , 0 , 0) ; font-family: &amp;#34;helvetica&amp;#34; ; font-style: normal ; letter-spacing: normal ; text-align: center ; text-indent: 0px ; text-transform: none ; word-spacing: 0px ; background-color: rgb(248 , 249 , 250) ; font-size: 16px&quot;&gt;(1, M)&lt;/b&gt;" style="text;whiteSpace=wrap;html=1;" vertex="1" parent="1">
          <mxGeometry x="1640" y="410" width="50" height="30" as="geometry" />
        </mxCell>
        <mxCell id="jiGbf1lOp1Cgb45dciDO-28" value="&lt;b style=&quot;color: rgb(0 , 0 , 0) ; font-family: &amp;#34;helvetica&amp;#34; ; font-style: normal ; letter-spacing: normal ; text-align: center ; text-indent: 0px ; text-transform: none ; word-spacing: 0px ; background-color: rgb(248 , 249 , 250) ; font-size: 16px&quot;&gt;(1, M)&lt;/b&gt;" style="text;whiteSpace=wrap;html=1;" vertex="1" parent="1">
          <mxGeometry x="660" y="1140" width="50" height="30" as="geometry" />
        </mxCell>
        <mxCell id="jiGbf1lOp1Cgb45dciDO-29" value="&lt;b style=&quot;color: rgb(0 , 0 , 0) ; font-family: &amp;#34;helvetica&amp;#34; ; font-style: normal ; letter-spacing: normal ; text-align: center ; text-indent: 0px ; text-transform: none ; word-spacing: 0px ; background-color: rgb(248 , 249 , 250) ; font-size: 16px&quot;&gt;(1, M)&lt;/b&gt;" style="text;whiteSpace=wrap;html=1;" vertex="1" parent="1">
          <mxGeometry x="730" y="800" width="50" height="30" as="geometry" />
        </mxCell>
        <mxCell id="jiGbf1lOp1Cgb45dciDO-30" value="&lt;b style=&quot;color: rgb(0 , 0 , 0) ; font-family: &amp;#34;helvetica&amp;#34; ; font-style: normal ; letter-spacing: normal ; text-align: center ; text-indent: 0px ; text-transform: none ; word-spacing: 0px ; background-color: rgb(248 , 249 , 250) ; font-size: 16px&quot;&gt;1&lt;/b&gt;" style="text;whiteSpace=wrap;html=1;" vertex="1" parent="1">
          <mxGeometry x="1610" y="855" width="40" height="30" as="geometry" />
        </mxCell>
      </root>
    </mxGraphModel>
  </diagram>
</mxfile>
